<?xml version="1.0" encoding="UTF-8" standalone="no"?>
<svg
   data-name="Layer 1"
   width="693"
   height="528"
   viewBox="0 0 693 528"
   version="1.1"
   id="svg185"
   sodipodi:docname="every-aspect.svg"
   inkscape:version="1.2.2 (b0a84865, 2022-12-01)"
   xmlns:inkscape="http://www.inkscape.org/namespaces/inkscape"
   xmlns:sodipodi="http://sodipodi.sourceforge.net/DTD/sodipodi-0.dtd"
   xmlns="http://www.w3.org/2000/svg"
   xmlns:svg="http://www.w3.org/2000/svg">
  <defs
     id="defs189" />
  <sodipodi:namedview
     id="namedview187"
     pagecolor="#ffffff"
     bordercolor="#000000"
     borderopacity="0.25"
     inkscape:showpageshadow="2"
     inkscape:pageopacity="0.0"
     inkscape:pagecheckerboard="0"
     inkscape:deskcolor="#d1d1d1"
     showgrid="false"
     inkscape:zoom="1.1039267"
     inkscape:cx="368.6839"
     inkscape:cy="268.58667"
     inkscape:window-width="1440"
     inkscape:window-height="787"
     inkscape:window-x="0"
     inkscape:window-y="25"
     inkscape:window-maximized="1"
     inkscape:current-layer="svg185" />
  <path
     d="M946.5,469.5V691.31A22.71737,22.71737,0,0,1,923.81,714H753.67l1.58-2L944.5,472.04Z"
     transform="translate(-253.5 -186)"
     fill="#f2f2f2"
     id="path113" />
  <path
     d="M 273.52937,409.18589 H 78.160572 a 6.036,6.036 0 0 0 0,12.072 H 273.52937 a 6.036,6.036 0 0 0 0,-12.072 z"
     fill="#e6e6e6"
     id="path115" />
  <path
     d="M 140.54682,361.75359 H 79.972286 a 6.036,6.036 0 0 0 0,12.072 h 60.574584 a 6.036,6.036 0 0 0 0,-12.072 z"
     fill="#e6e6e6"
     id="path117" />
  <path
     d="M923.81,186H276.19a22.71737,22.71737,0,0,0-22.69,22.69V691.31A22.71737,22.71737,0,0,0,276.19,714H923.81a22.71737,22.71737,0,0,0,22.69-22.69V208.69A22.71737,22.71737,0,0,0,923.81,186ZM944.5,691.31A20.69,20.69,0,0,1,923.81,712H276.19a20.69,20.69,0,0,1-20.69-20.69V343.67554A155.67554,155.67554,0,0,1,411.17554,188H923.81a20.69,20.69,0,0,1,20.69,20.69Z"
     transform="translate(-253.5 -186)"
     fill="#e6e6e6"
     id="path119"
     style="fill:#afafe9" />
  <path
     d="M883.39049,273.26853H316.66a1,1,0,0,1,0-2H883.39049a1,1,0,0,1,0,2Z"
     transform="translate(-253.5 -186)"
     fill="#e6e6e6"
     id="path121" />
  <ellipse
     cx="91.51486"
     cy="48.60301"
     rx="8.45661"
     ry="8.64507"
     fill="#e6e6e6"
     id="ellipse123"
     style="fill:#ff5555" />
  <ellipse
     cx="120.72861"
     cy="48.60301"
     rx="8.45661"
     ry="8.64507"
     fill="#e6e6e6"
     id="ellipse125"
     style="fill:#ffdd55" />
  <ellipse
     cx="149.94237"
     cy="48.60301"
     rx="8.45661"
     ry="8.64507"
     fill="#e6e6e6"
     id="ellipse127"
     style="fill:#55ff99" />
  <path
     d="M436.75379,241.4358a.9967.9967,0,0,1-.71485-.30078l-5.70605-5.833a.99954.99954,0,0,1,0-1.39844l5.70605-5.83251a1,1,0,1,1,1.42969,1.39843l-5.022,5.1333,5.022,5.13379a1,1,0,0,1-.71484,1.69922Z"
     transform="translate(-253.5 -186)"
     fill="#e6e6e6"
     id="path129" />
  <path
     d="M446.34217,241.4358a1,1,0,0,1-.71485-1.69922l5.02149-5.13379-5.02149-5.1333a1,1,0,0,1,1.42969-1.39843l5.70557,5.83251a.99954.99954,0,0,1,0,1.39844l-5.70557,5.833A.9967.9967,0,0,1,446.34217,241.4358Z"
     transform="translate(-253.5 -186)"
     fill="#e6e6e6"
     id="path131" />
  <path
     d="M832.852,226.95884h-10.61a2.18935,2.18935,0,0,0-2.19,2.19v10.62a2.18936,2.18936,0,0,0,2.19,2.19h10.61a2.19791,2.19791,0,0,0,2.2-2.19v-10.62A2.1979,2.1979,0,0,0,832.852,226.95884Z"
     transform="translate(-253.5 -186)"
     fill="#e6e6e6"
     id="path133" />
  <path
     d="M806.852,226.95884h-10.61a2.18935,2.18935,0,0,0-2.19,2.19v10.62a2.18936,2.18936,0,0,0,2.19,2.19h10.61a2.19791,2.19791,0,0,0,2.2-2.19v-10.62A2.1979,2.1979,0,0,0,806.852,226.95884Z"
     transform="translate(-253.5 -186)"
     fill="#e6e6e6"
     id="path135" />
  <path
     d="M857.352,227.45884h-10.61a2.18935,2.18935,0,0,0-2.19,2.19v10.62a2.18936,2.18936,0,0,0,2.19,2.19h10.61a2.19791,2.19791,0,0,0,2.2-2.19v-10.62A2.1979,2.1979,0,0,0,857.352,227.45884Z"
     transform="translate(-253.5 -186)"
     fill="#e6e6e6"
     id="path137" />
  <path
     d="M642.4303,231.49881h-84.81a2.67,2.67,0,1,0,0,5.34h84.81a2.67,2.67,0,0,0,0-5.34Z"
     transform="translate(-253.5 -186)"
     fill="#e6e6e6"
     id="path139" />
  <path
     d="M 129.89872,462.63446 H 81.124572 a 9,9 0 0 0 0,18 h 48.774188 a 9,9 0 0 0 0,-18 z"
     fill="#e6e6e6"
     id="path159" />
  <polygon
     points="569.392 517.568 559.491 517.567 554.781 479.377 569.394 479.378 569.392 517.568"
     fill="#ffb6b6"
     id="polygon161" />
  <path
     d="M823.24065,713.89669l-30.447-.00115v-.385a11.85147,11.85147,0,0,1,11.85083-11.85065h.00073l5.56152-4.21924,10.37659,4.21991,2.65784.00006Z"
     transform="translate(-253.5 -186)"
     fill="#2f2e41"
     id="path163" />
  <polygon
     points="604.392 517.568 594.491 517.567 589.781 479.377 604.394 479.378 604.392 517.568"
     fill="#ffb6b6"
     id="polygon165" />
  <path
     d="M858.24065,713.89669l-30.447-.00115v-.385a11.85147,11.85147,0,0,1,11.85083-11.85065h.00073l5.56152-4.21924,10.37659,4.21991,2.65784.00006Z"
     transform="translate(-253.5 -186)"
     fill="#2f2e41"
     id="path167" />
  <path
     d="M798.23947,495.48018s-9.5262,29.25813-7.76785,33.109S795.23,529.44,792.23,532.44s-5.61884-.189-2.80942,4.90551,7.06559,47.03407,8.93751,49.06428,4.44568,2.08468,2.15879,4.05745S795.23,588.44,798.23,592.44s10.96063,96.27559,10.96063,96.27559h15.55114s3.87318-4.46456,1.68071-7.37008.19247-4.02548,0-5.96549.53674-6.12277.67213-8.03139,2.76354-47.37757-3.55054-73.6431l11.51362-50.01216,5.75679,60.44638s-6.41553,50.70183,0,67.001c0,0-5.17233,4.30709-2.87841,6.80315S842.23,678.44,840.23,680.44s3,9,3,9l17-1,9.62205-94.73447s1.622-9.8797,0-11.57261S868.23,586.44,868.23,580.44v-8s7.25056-49.20472,7.12528-52.10236S863.23,496.44,863.23,496.44Z"
     transform="translate(-253.5 -186)"
     fill="#2f2e41"
     id="path169" />
  <path
     d="M848.51935,377.14728l-24.823-1.70728-7.42785,11.712-17.88863,7.27293v57.69454A55.60033,55.60033,0,0,1,801.23,469.44c-.06823,11.49453-3.02253,25.03466-2,28,10,29,65,0,65,0l-1-31,1.3574-70.05937-11.23893-8.96384Z"
     transform="translate(-253.5 -186)"
     fill="#e6e6e6"
     id="path171" />
  <path
     d="M797.23253,508.00462,795.521,489.76337l-10.55686-.47618,2.49569,19.2214a6.13324,6.13324,0,1,0,9.77265-.504Z"
     transform="translate(-253.5 -186)"
     fill="#ffb6b6"
     id="path173" />
  <path
     d="M802.42783,392.88645l-.29266.04951a16.98787,16.98787,0,0,0-12.58455,9.62841c-3.02332,6.5379-12.8398,49.51683-8.53654,55.99808,3.3376,5.02689,2.52673,4.04615.95778,7.838s-4.0957-.25436-2.02478,5.76366,4.34666,5.1593,2.42433,7.48456-3.89421,1.86944-2.02477,5.76366,1.56555,5.20879,1.91895,6.67532.04613,11.78169.04613,11.78169,11.27634-.85538,16.888,1.82668c0,0-3.13114-10.41759-1.36073-12.08558s3.89423-1.86945,2.37818-4.29714-4.95445-2.53012-1.21216-3.74229,2.5369-22.95558,2.5369-22.95558C807.70522,446.47493,805.26991,419.92688,802.42783,392.88645Z"
     transform="translate(-253.5 -186)"
     fill="#e6e6e6"
     id="path175" />
  <path
     d="M870.42228,509.30641l.78906-18.30436,10.51939-1.00815-1.52282,19.32283a6.13324,6.13324,0,1,1-9.78563-.01032Z"
     transform="translate(-253.5 -186)"
     fill="#ffb6b6"
     id="path177" />
  <path
     d="M859.42612,394.59691l.29478.03468a16.9879,16.9879,0,0,1,13.05426,8.98129c3.34929,6.37706,13.94508,49.56879,11.35067,55.49615-2.41947,5.52769-2.3194,4.16845-.56116,7.87628s4.07765-.46066,2.313,5.65418-4.08085,5.372-2.04366,7.59733,3.98356,1.6706,2.313,5.65417-1.30078,5.28114-1.57975,6.76363.54829,11.769.54829,11.769-11.30514-.28542-16.77439,2.67632c0,0,2.60161-10.56228.74931-12.13883s-3.98358-1.67062-2.59193-4.17169,4.8205-2.77685,1.02182-3.79868-3.6917-22.79838-3.6917-22.79838Z"
     transform="translate(-253.5 -186)"
     fill="#e6e6e6"
     id="path179" />
  <circle
     cx="583.21719"
     cy="166.41031"
     r="19.36219"
     fill="#ffb6b6"
     id="circle181" />
  <path
     d="M850.19186,368.98408c2.69286-2.10746,2.95426-6.12449,5.25223-8.65672,3.8421-4.23373,5.64722-8.78866,3.63458-13.80527-1.78015-4.437-1.40178-9.89125-5.23573-12.74732,1.883-.68165,2.32615-2.09722.66469-2.12336-1.12042-.01762-5.29722,2.12375-3.28744-.54383s-1.7946-1.61462-1.543-2.70656,1.8652-1.69671,2.57686-.83115a5.6397,5.6397,0,0,0-8.84591,1.01189c-2.26458-3.39392-4.66838-5.72925-8.13365-3.57547-3.40345,2.11532-3.359,4.73016-7.01886,4.10174-1.72058-.29541-1.88315,2.95523-3.05854,4.246a5.24691,5.24691,0,0,1-4.609,1.96555c-1.7154-.32418-3.02709-2.46193-2.06587-3.91923l-4.043,9.22356-1.62943-1.99866c-2.58913,1.68734-1.73874,6.09027.86747,7.7511s5.993,1.30585,8.99444.56967a35.27556,35.27556,0,0,1,11.05161-.91662c5.6662.80049,9.61278,7.57467,7.51461,12.89861,2.177-2.13776,6.20431-.36368,7.3321,2.47138s.30082,6.02913-.5352,8.96351"
     transform="translate(-253.5 -186)"
     fill="#2f2e41"
     id="path183" />
  <text
     xml:space="preserve"
     style="font-size:37.3333px;font-family:Chalkboard;-inkscape-font-specification:'Chalkboard, Normal';opacity:0.83;fill:#2c89a0;fill-opacity:1;stroke:#1c1331;stroke-width:0;stroke-dasharray:none;stroke-opacity:1"
     x="62.50415"
     y="128.63171"
     id="text599"><tspan
       sodipodi:role="line"
       id="tspan597"
       x="62.50415"
       y="128.63171"
       style="font-style:normal;font-variant:normal;font-weight:normal;font-stretch:normal;font-size:37.3333px;font-family:Arial;-inkscape-font-specification:Arial;fill:#2c89a0;fill-opacity:1;stroke:#1c1331;stroke-width:0;stroke-dasharray:none;stroke-opacity:1">Data structures &amp; Algorithms</tspan></text>
  <text
     xml:space="preserve"
     style="font-size:37.3333px;font-family:Chalkboard;-inkscape-font-specification:'Chalkboard, Normal';opacity:0.83;fill:#2c89a0;fill-opacity:1;stroke:#1c1331;stroke-width:0;stroke-dasharray:none;stroke-opacity:1"
     x="61.680504"
     y="179.9626"
     id="text599-4"><tspan
       sodipodi:role="line"
       id="tspan597-8"
       x="61.680504"
       y="179.9626"
       style="font-style:normal;font-variant:normal;font-weight:normal;font-stretch:normal;font-size:37.3333px;font-family:Arial;-inkscape-font-specification:Arial;fill:#2c89a0;fill-opacity:1;stroke:#1c1331;stroke-width:0;stroke-dasharray:none;stroke-opacity:1">System Design</tspan></text>
  <text
     xml:space="preserve"
     style="font-size:37.3333px;font-family:Chalkboard;-inkscape-font-specification:'Chalkboard, Normal';opacity:0.83;fill:#2c89a0;fill-opacity:1;stroke:#1c1331;stroke-width:0;stroke-dasharray:none;stroke-opacity:1"
     x="66.962418"
     y="232.50233"
     id="text599-4-9"><tspan
       sodipodi:role="line"
       id="tspan597-8-9"
       x="66.962418"
       y="232.50233"
       style="font-style:normal;font-variant:normal;font-weight:normal;font-stretch:normal;font-size:37.3333px;font-family:Arial;-inkscape-font-specification:Arial;fill:#2c89a0;fill-opacity:1;stroke:#1c1331;stroke-width:0;stroke-dasharray:none;stroke-opacity:1">Web Security</tspan></text>
  <text
     xml:space="preserve"
     style="font-size:37.3333px;font-family:Chalkboard;-inkscape-font-specification:'Chalkboard, Normal';opacity:0.83;fill:#2c89a0;fill-opacity:1;stroke:#1c1331;stroke-width:0;stroke-dasharray:none;stroke-opacity:1"
     x="69.541725"
     y="285.04205"
     id="text599-4-9-9"><tspan
       sodipodi:role="line"
       id="tspan597-8-9-1"
       x="69.541725"
       y="285.04205"
       style="font-style:normal;font-variant:normal;font-weight:normal;font-stretch:normal;font-size:37.3333px;font-family:Arial;-inkscape-font-specification:Arial;fill:#2c89a0;fill-opacity:1;stroke:#1c1331;stroke-width:0;stroke-dasharray:none;stroke-opacity:1">DevOps</tspan></text>
  <text
     xml:space="preserve"
     style="font-size:37.3333px;font-family:Chalkboard;-inkscape-font-specification:'Chalkboard, Normal';opacity:0.83;fill:#2c89a0;fill-opacity:1;stroke:#1c1331;stroke-width:0;stroke-dasharray:none;stroke-opacity:1"
     x="69.540619"
     y="333.28033"
     id="text599-4-9-9-8"><tspan
       sodipodi:role="line"
       id="tspan597-8-9-1-1"
       x="69.540619"
       y="333.28033"
       style="font-style:normal;font-variant:normal;font-weight:normal;font-stretch:normal;font-size:37.3333px;font-family:Arial;-inkscape-font-specification:Arial;fill:#2c89a0;fill-opacity:1;stroke:#1c1331;stroke-width:0;stroke-dasharray:none;stroke-opacity:1">Performance Optimisation</tspan></text>
</svg>
